<?xml version="1.0" encoding="utf-8"?>
<!-- Generator: Adobe Illustrator 24.1.2, SVG Export Plug-In . SVG Version: 6.00 Build 0)  -->
<svg version="1.1" id="レイヤー_1" xmlns="http://www.w3.org/2000/svg" xmlns:xlink="http://www.w3.org/1999/xlink" x="0px"
	 y="0px" viewBox="0 0 220 125.9" style="enable-background:new 0 0 220 125.9;" xml:space="preserve">
<style type="text/css">
	.st0{fill:#777777;}
</style>
<g>
	<g>
		<path class="st0" d="M4.8,30.7c0.3,5.6,3.5,8.5,8.8,8.5c5,0,8.2-2.6,8.2-7.6c0-3.8-1.8-6.1-7.6-8.8C7.4,19.9,5.1,17,5.1,12
			c0-6.1,3.8-11.7,12-11.7S28.8,5.6,28.8,12h-5c-0.3-4.4-2-7.3-7.3-7.3c-4.7,0-7,3.2-7,6.7c0,2.9,1.2,4.7,6.7,7
			c7.6,3.2,10.2,7,10.2,12.6c0,6.7-3.5,12.9-13.5,12.9C4.5,43.9,0.4,38.7,0.1,31h4.7V30.7z"/>
		<path class="st0" d="M35.8,0.9h4.7l-3.2,17.6h18.4l3.2-17.6h4.7l-7.9,42.4H51l3.8-20.5H36.4l-3.8,20.5h-4.4L35.8,0.9z"/>
		<path class="st0" d="M74.7,0.9l-7.9,42.4h-4.7l7.9-42.4H74.7z"/>
		<path class="st0" d="M73.6,43l7.9-42.4h5.9c3.2,9.7,10.5,31.6,11.4,36.3l0,0c0.6-5.3,2-12.6,3.2-19.6l2.9-16.7h4.4L101.4,43h-5.6
			C92.9,34,85.3,10.6,84.1,5.9l0,0c-0.6,5.6-2,12.3-3.5,19.9L77.4,43C77.4,43,73.6,43,73.6,43z"/>
		<path class="st0" d="M119.2,32.5c-1.5,7.3-3.8,11.4-10.2,11.4c-1.5,0-3.2-0.3-4.1-0.6l0.9-4.4c0.9,0.3,2,0.3,3.2,0.3
			c4.1,0,5-3.5,5.6-7l5.9-31.3h4.7L119.2,32.5z"/>
		<path class="st0" d="M135.3,0.9l-4.7,26c-1.8,9.1,2,12.6,7.3,12.6c6.4,0,9.1-3.2,10.5-12.6l4.7-26h4.7l-5,26.3
			c-2.3,11.7-5.9,16.4-15.5,16.4c-8.2,0-13.8-5-11.7-17.3l4.7-25.8h5V0.9z"/>
		<path class="st0" d="M164,0.9h4.7l-3.8,20.8c2.6-2.6,14-13.8,20.8-20.8h5.9L173.1,19l11.4,24.3h-5.3L169.6,22l-5.9,5L160.8,43
			h-4.7L164,0.9z"/>
		<path class="st0" d="M197.1,0.9l-4.7,26c-1.8,9.1,2,12.6,7.3,12.6c6.4,0,9.1-3.2,10.5-12.6l4.7-26h4.7l-5,26.3
			c-2.3,11.7-5.9,16.4-15.5,16.4c-8.2,0-13.8-5-11.7-17.3l4.7-25.8h5V0.9z"/>
	</g>
</g>
<g>
	<polygon class="st0" points="158.9,117.6 159.6,119.7 206.7,107.8 205.7,103.6 	"/>
	<polygon class="st0" points="160.3,123.2 208.1,113 207.1,109.2 159.9,121.1 	"/>
	<path class="st0" d="M171.1,97.3l-0.3,5.2h17.5l-0.3-5.2c12.6-6.3,14.3-15.4,14.3-19.9h-45.4C156.8,81.9,158.5,91.4,171.1,97.3z"/>
</g>
<g>
	<g>
		<path class="st0" d="M17.1,83H37v6.6H24.8v4.5h10.5v6.6H24.8v5.2h12.6v6.6H17.1V83z"/>
		<path class="st0" d="M56.2,83h9.4l8.7,29.7H66l-3.1-14.3c-0.7-3.1-1.4-6.6-2.1-9.4h-0.3c-0.3,2.8-1.4,6.3-1.7,9.1l-3.5,14.7h-8
			L56.2,83z M53.8,100.1h14.3v5.9H53.8V100.1z"/>
		<path class="st0" d="M91.1,89.6h-8.4V83h24.8v6.6h-8.4v23.1h-7.7V89.6H91.1z"/>
		<path class="st0" d="M116.4,108.8l4.5-5.2c2.1,1.7,4.9,2.8,7.7,2.8c2.4,0,3.1-0.7,3.1-1.7c0-1.7-1.4-2.1-4.2-3.1l-3.8-1.4
			c-3.5-1.4-6.3-4.2-6.3-8.4c0-4.9,4.5-9.1,11.2-9.1c3.5,0,7.3,1.4,10.1,3.8l-3.8,4.9c-2.1-1.4-3.8-2.1-6.6-2.1
			c-1.7,0-2.8,0.7-2.8,2.1s1.7,1.7,4.5,2.8l3.5,1.4c3.8,1.4,6.3,3.8,6.3,8c0,4.9-4.2,9.4-11.9,9.4
			C124.1,113,119.5,111.6,116.4,108.8z"/>
	</g>
</g>
<rect x="10.4" y="72.2" class="st0" width="135.2" height="3.5"/>
<rect x="10.4" y="120.4" class="st0" width="135.2" height="3.5"/>
</svg>
